# xmcd CD database file
#
# Track frame offsets:
#	150
#	20285
#	38481
#	56851
#	76377
#	93889
#	113228
#	133812
#	152813
#	177744
#	187942
#
# Disc length: 2775 seconds
#
# Revision: 3
# Processed by: cddbd v1.5.2PL0 Copyright (c) Steve Scherf et al.
# Submitted via: CDex 1.70beta2
#
DISCID=8a0ad50b
DTITLE=이승환 - Always
DYEAR=1992
DGENRE=Pop
TTITLE0=너를 향한 마음
TTITLE1=세상에 뿌려진 사랑만큼
TTITLE2=회상이 지나간 오후
TTITLE3=먼 시간속의 추억
TTITLE4=하숙생
TTITLE5=슬픔에 관하여
TTITLE6=나는 나일뿐
TTITLE7=이밤을 뒤로
TTITLE8=사랑하는 걸
TTITLE9=아무래도 좋아
TTITLE10=이 세상은
EXTD=YEAR: 1992
EXTT0=
EXTT1=
EXTT2=
EXTT3=
EXTT4=
EXTT5=
EXTT6=
EXTT7=
EXTT8=
EXTT9=
EXTT10=
PLAYORDER=
